IKResults
version=1
nRows=22
nColumns=24
inDegrees=yes

Units are S.I. units (second, meters, Newtons, ...)
If the header above contains a line with 'inDegrees', this indicates whether rotational values are in degrees (yes) or radians (no).

endheader
time	pelvis_tilt	pelvis_list	pelvis_rotation	pelvis_tx	pelvis_ty	pelvis_tz	hip_flexion_r	hip_adduction_r	hip_rotation_r	knee_angle_r	ankle_angle_r	subtalar_angle_r	mtp_angle_r	hip_flexion_l	hip_adduction_l	hip_rotation_l	knee_angle_l	ankle_angle_l	subtalar_angle_l	mtp_angle_l	lumbar_extension	lumbar_bending	lumbar_rotation
      5.25000000	     -7.79730698	    -11.72392239	    -96.02675156	     -0.25145478	      0.93985047	     -2.12875993	    -41.23451935	      5.02672413	      1.86995024	     10.08923484	     -0.74400025	      4.66409329	      0.00000000	      2.71000712	     -5.68988931	    -28.68352453	     18.73303979	    -11.20076462	     19.62706350	      0.00000000	    -33.17000754	      3.75020310	     12.63256206
      5.26000000	     -7.77994963	    -12.30647700	    -96.13957942	     -0.25005224	      0.94122903	     -2.11110713	    -40.34704748	      4.66977145	      3.36037871	      5.60430879	     -0.21842998	      2.39390490	      0.00000000	      1.18570374	     -5.53564126	    -28.02233913	     18.66792695	    -13.84265375	     18.49827818	      0.00000000	    -33.61590898	      3.46300775	     12.54069145
      5.27000000	     -7.70745949	    -12.77723948	    -96.25703301	     -0.24864326	      0.94290120	     -2.09371403	    -38.26081740	      4.49427657	      4.62003940	     -0.77954457	      0.62021727	      0.43317926	      0.00000000	     -0.10969169	     -5.39431463	    -27.45445966	     18.45184820	    -16.49503158	     17.20334722	      0.00000000	    -33.97323981	      3.12112469	     12.40803671
      5.28000000	     -7.11843633	    -12.89024198	    -96.40994307	     -0.24707039	      0.94420940	     -2.07708346	    -34.58392880	      3.99906226	      4.82691530	     -9.18424073	      1.68946168	     -0.15891807	      0.00000000	     -0.71969928	     -4.87293262	    -26.91651277	     17.73167214	    -18.52245811	     15.71571192	      0.00000000	    -33.96753556	      2.29392747	     12.26171571
      5.29000000	     -5.79175345	    -12.72727790	    -96.49743852	     -0.24503622	      0.94500509	     -2.06119903	    -30.70976265	      2.67857024	      3.94917037	    -17.03349753	      1.50517505	      0.17973472	      0.00000000	     -0.69498935	     -3.83922121	    -25.34670631	     16.33614533	    -19.46106837	     12.80695105	      0.00000000	    -33.65217189	      0.80485183	     11.80404224
      5.30000000	     -4.02531713	    -12.58087603	    -96.48473296	     -0.24258544	      0.94602260	     -2.04567992	    -27.32776092	      0.62930146	      2.34095020	    -23.60062312	     -0.16756589	      1.12096562	      0.00000000	     -0.36757855	     -2.43662750	    -23.28374840	     14.31608490	    -19.30747206	      9.54027098	      0.00000000	    -33.35882525	     -1.06831539	     11.04114212
      5.31000000	     -2.00650172	    -12.39928249	    -96.33190676	     -0.23980504	      0.94733253	     -2.03062208	    -24.15408388	     -1.86736837	      0.60502297	    -29.35511858	     -3.09463305	      1.82445903	      0.00000000	      0.55556253	     -0.89967759	    -20.70766049	     11.24300880	    -18.03527248	      6.03981320	      0.00000000	    -33.09622018	     -3.09063341	     10.22022784
      5.32000000	     -0.01215229	    -12.10556959	    -96.06589032	     -0.23677775	      0.94864316	     -2.01605106	    -21.02184527	     -4.48717684	     -1.05941335	    -34.53062403	     -6.96203077	      2.13904908	      0.00000000	      2.24781744	      0.53856988	    -17.54916326	      6.98202779	    -15.93993812	      2.04904150	      0.00000000	    -32.79093835	     -5.01368753	      9.07136985
      5.33000000	      1.69804109	    -11.56287752	    -95.69417541	     -0.23357971	      0.94953590	     -2.00210654	    -17.74371840	     -6.88501738	     -2.57391214	    -39.24475121	    -11.34388857	      1.87122065	      0.00000000	      5.58651341	      1.55907090	    -13.93852451	      0.15496364	    -12.56670687	     -2.07828058	      0.00000000	    -32.32008400	     -6.56872182	      7.57832096
      5.34000000	      2.50444671	    -10.85238752	    -95.40586472	     -0.23083121	      0.94950736	     -1.98828170	    -14.50626748	     -8.34099899	     -3.74054268	    -43.42198353	    -15.67109810	      0.77484407	      0.00000000	      9.76341616	      1.79088984	    -11.52495409	     -7.99663535	     -8.48595762	     -4.04431723	      0.00000000	    -31.64915757	     -7.18234362	      6.40905543
      5.35000000	      2.95374110	    -10.64764932	    -95.33107529	     -0.22840500	      0.95016548	     -1.97379296	    -12.10829867	     -9.51153809	     -4.61110820	    -46.89137773	    -19.23646569	     -0.96140813	      0.00000000	     11.04912860	      2.26959511	    -10.37507590	    -11.75792847	     -6.38444579	     -5.15554353	      0.00000000	    -31.40803177	     -7.43443573	      6.00045988
      5.36000000	      3.31366920	    -10.59286372	    -95.38137166	     -0.22607933	      0.95129788	     -1.95927295	     -9.90971649	    -10.56598715	     -5.17188374	    -50.04958334	    -21.35303363	     -3.07290761	      0.00000000	     11.29608278	      2.80219743	     -9.83707345	    -13.88986481	     -4.85385153	     -5.78044803	      0.00000000	    -31.29541585	     -7.62206441	      5.65535734
      5.37000000	      3.52299985	    -10.60122324	    -95.50864386	     -0.22390564	      0.95285024	     -1.94485522	     -7.77744108	    -11.29618023	     -5.31847666	    -52.93810934	    -21.85880306	     -5.43321902	      0.00000000	     11.04497927	      3.24486791	     -9.44260126	    -15.23296363	     -3.62988281	     -6.35100000	      0.00000000	    -31.24706828	     -7.67622619	      5.35019528
      5.38000000	      3.61338563	    -10.61181829	    -95.67496151	     -0.22189672	      0.95480975	     -1.93057568	     -5.63799535	    -11.68456198	     -5.09689180	    -55.52096387	    -21.02346627	     -7.71610885	      0.00000000	     10.42960032	      3.60676473	     -9.15353043	    -15.89726089	     -2.71514656	     -6.85951283	      0.00000000	    -31.21447402	     -7.61344649	      5.16485554
      5.39000000	      3.55137543	    -10.59230498	    -95.91030998	     -0.22012206	      0.95698934	     -1.91646754	     -3.44870510	    -11.67342516	     -4.48441042	    -57.77295786	    -19.28052884	     -9.47712065	      0.00000000	      9.71971383	      3.83365995	     -8.79146891	    -16.33462308	     -1.95369454	     -7.54701576	      0.00000000	    -31.16494709	     -7.44326901	      4.98217707
      5.40000000	      3.43111137	    -10.55200516	    -96.16715714	     -0.21852444	      0.95952626	     -1.90252480	     -1.27789182	    -11.42029141	     -3.69819946	    -59.58852960	    -17.24692329	    -10.67938214	      0.00000000	      8.66834849	      4.05013786	     -8.44376042	    -16.06476086	     -1.55331426	     -8.33525932	      0.00000000	    -31.12646933	     -7.22764226	      4.88470878
      5.41000000	      3.35303690	    -10.53095368	    -96.44478899	     -0.21701036	      0.96231453	     -1.88869177	      0.82477518	    -11.15270168	     -2.89720120	    -60.98698784	    -15.26249459	    -11.19296951	      0.00000000	      7.21323436	      4.39135614	     -7.98955093	    -15.02656593	     -1.57253622	     -9.47617346	      0.00000000	    -31.12498152	     -7.06741319	      4.86292218
      5.42000000	      3.35910349	    -10.66293152	    -96.78510021	     -0.21561918	      0.96547043	     -1.87481668	      2.67738992	    -10.99040197	     -2.12803980	    -61.93400814	    -13.53175991	    -11.15470353	      0.00000000	      5.01744391	      4.91135808	     -7.59937758	    -12.86521649	     -2.10368661	    -10.82606949	      0.00000000	    -31.27870852	     -7.03699417	      4.92933533
      5.43000000	      3.36311804	    -11.03639507	    -97.19266496	     -0.21442120	      0.96909245	     -1.86068633	      4.10106330	    -10.88768521	     -1.48309774	    -62.36682416	    -12.13335071	    -10.75895755	      0.00000000	      1.45392256	      5.56463565	     -7.47195778	     -8.61268136	     -3.49186379	    -12.08439850	      0.00000000	    -31.66047311	     -7.05944010	      5.06968008
      5.44000000	      2.93895396	    -11.85297121	    -97.85188916	     -0.21402254	      0.97296391	     -1.84576258	      4.73851323	    -10.31658740	     -0.84149246	    -62.23356536	    -10.96532571	    -10.45455186	      0.00000000	     -5.11113315	      6.13769911	     -8.71273277	      0.24345650	     -6.82843230	    -12.00657483	      0.00000000	    -32.39491868	     -6.86390164	      5.34874351
      5.45000000	      2.02587796	    -12.08400628	    -98.39236814	     -0.21371518	      0.97520267	     -1.83150485	      5.88011705	     -9.16029908	     -0.65279052	    -61.92271970	     -9.80058212	     -9.99398950	      0.00000000	     -9.14107472	      5.95960103	    -10.02077516	      5.39585899	     -8.51071111	    -11.03659293	      0.00000000	    -32.58674962	     -6.06535189	      5.66132124
      5.46000000	      1.19712847	    -12.02491447	    -98.86086350	     -0.21330990	      0.97689833	     -1.81780534	      7.29733236	     -7.99687712	     -0.55638154	    -61.36086753	     -8.70883772	     -9.63382225	      0.00000000	    -11.47775138	      5.66317842	    -11.24565443	      7.99826431	     -8.90543363	     -9.79895789	      0.00000000	    -32.55185120	     -5.26868152	      6.03021775
